<svg width="18" height="18" viewBox="0 0 18 18" fill="none" xmlns="http://www.w3.org/2000/svg">
<path d="M3.75 12.75H3C2.60218 12.75 2.22064 12.592 1.93934 12.3107C1.65804 12.0294 1.5 11.6478 1.5 11.25V3.75C1.5 3.35218 1.65804 2.97064 1.93934 2.68934C2.22064 2.40804 2.60218 2.25 3 2.25H15C15.3978 2.25 15.7794 2.40804 16.0607 2.68934C16.342 2.97064 16.5 3.35218 16.5 3.75V11.25C16.5 11.6478 16.342 12.0294 16.0607 12.3107C15.7794 12.592 15.3978 12.75 15 12.75H14.25" stroke="#333333" stroke-linecap="round" stroke-linejoin="round"/>
<path d="M9 11.25L12.75 15.75H5.25L9 11.25Z" stroke="#333333" stroke-linecap="round" stroke-linejoin="round"/>
</svg>
